<svg width="96" height="96" viewBox="0 0 96 96" fill="none" xmlns="http://www.w3.org/2000/svg">
  <circle cx="48" cy="48" r="44" fill="url(#bg)"/>
  <path d="M58 22C48 24.2 38.7 31.1 33 40.5C30.2 45.1 28 51.6 28 56V58L38 52L44 58L38 68H40C44.4 68 50.9 65.8 55.5 63C64.9 57.3 71.8 48 74 38C74.3 36.6 74.6 33.8 74.6 31.8V28.4H71.2C69.2 28.4 66.4 28.7 65 29C63 29.5 60.5 30.5 58.8 31.4L58 31.8V22Z" fill="#FFF8E7"/>
  <circle cx="57.5" cy="38.5" r="5.5" fill="#7DD3FC"/>
  <path d="M29 67L20 76" stroke="#FFF8E7" stroke-width="4" stroke-linecap="round"/>
  <defs>
    <linearGradient id="bg" x1="14" y1="8" x2="88" y2="88" gradientUnits="userSpaceOnUse">
      <stop stop-color="#34D399"/>
      <stop offset="1" stop-color="#3B82F6"/>
    </linearGradient>
  </defs>
</svg>
